<svg width="32" height="32" viewBox="0 0 32 32" fill="none" xmlns="http://www.w3.org/2000/svg">
<path d="M21.3333 21.3333L16 16L10.6667 21.3333" stroke="#003C97" stroke-width="2" stroke-linecap="round" stroke-linejoin="round"/>
<path d="M16 16V28" stroke="#003C97" stroke-width="2" stroke-linecap="round" stroke-linejoin="round"/>
<path d="M27.1867 24.52C28.4871 23.811 29.5144 22.6892 30.1065 21.3315C30.6985 19.9738 30.8216 18.4576 30.4563 17.0222C30.0909 15.5869 29.258 14.314 28.0889 13.4046C26.9198 12.4952 25.4811 12.001 24 12H22.32C21.9164 10.439 21.1642 8.98977 20.1199 7.76131C19.0756 6.53286 17.7665 5.55712 16.2908 4.90747C14.8151 4.25781 13.2114 3.95113 11.6001 4.0105C9.9889 4.06986 8.41208 4.49372 6.98823 5.25021C5.56437 6.0067 4.33054 7.07613 3.37949 8.3781C2.42844 9.68007 1.78491 11.1807 1.4973 12.7672C1.20969 14.3537 1.28547 15.9847 1.71894 17.5377C2.15242 19.0906 2.93232 20.5251 3.99999 21.7333" stroke="#003C97" stroke-width="2" stroke-linecap="round" stroke-linejoin="round"/>
<path d="M21.3333 21.3333L16 16L10.6667 21.3333" stroke="#003C97" stroke-width="2" stroke-linecap="round" stroke-linejoin="round"/>
</svg>
